<?xml version="1.0" standalone="no"?>
<!DOCTYPE svg PUBLIC "-//W3C//DTD SVG 20010904//EN"
 "http://www.w3.org/TR/2001/REC-SVG-20010904/DTD/svg10.dtd">
<svg version="1.0" xmlns="http://www.w3.org/2000/svg"
 width="816.000000pt" height="816.000000pt" viewBox="0 0 816.000000 816.000000"
 preserveAspectRatio="xMidYMid meet">
<metadata>
Created by potrace 1.14, written by Peter Selinger 2001-2017
</metadata>
<g transform="translate(0.000000,816.000000) scale(0.100000,-0.100000)"
fill="#000000" stroke="none">
<path d="M4786 6822 c-50 -2 -95 -6 -100 -11 -6 -4 -38 -7 -71 -6 -33 2 -65
-2 -72 -7 -6 -5 -40 -11 -75 -12 -36 -1 -70 -6 -78 -11 -7 -4 -27 -9 -44 -10
-17 -2 -31 -4 -31 -5 0 -1 -15 -3 -34 -5 -19 -2 -37 -7 -40 -12 -10 -13 -31
-14 -31 -1 0 6 -9 3 -20 -7 -11 -10 -20 -15 -20 -10 0 4 -6 3 -12 -2 -7 -6
-21 -9 -30 -8 -10 2 -18 0 -18 -4 0 -4 -10 -8 -22 -8 -13 -1 -24 -7 -26 -12
-2 -5 -9 -8 -15 -5 -7 2 -40 -7 -74 -20 -34 -13 -64 -21 -67 -18 -3 3 -6 0 -6
-6 0 -7 -3 -11 -8 -9 -10 3 -156 -55 -163 -66 -3 -5 -9 -8 -13 -7 -12 4 -66
-22 -66 -31 0 -5 -3 -8 -7 -8 -5 1 -11 0 -15 -1 -5 -1 -11 -3 -15 -5 -23 -6
-50 -20 -65 -32 -9 -8 -22 -12 -29 -7 -7 4 -10 3 -6 -3 3 -5 -13 -20 -36 -32
-82 -44 -102 -56 -110 -68 -4 -7 -15 -13 -22 -13 -8 0 -15 -4 -15 -10 0 -5 -7
-10 -15 -10 -8 0 -15 -4 -15 -9 0 -5 -10 -13 -22 -17 -12 -3 -28 -13 -36 -20
-7 -8 -42 -35 -78 -60 -35 -25 -64 -50 -64 -55 0 -5 -3 -8 -7 -7 -10 3 -42
-23 -104 -83 -26 -26 -49 -46 -51 -45 -2 2 -11 -6 -20 -16 -10 -10 -17 -18
-15 -18 2 0 -24 -28 -57 -63 -34 -35 -64 -61 -68 -59 -5 2 -8 -2 -8 -8 0 -7
-15 -27 -34 -45 -19 -18 -32 -36 -29 -39 3 -3 -2 -8 -11 -12 -9 -3 -13 -10
-10 -15 3 -5 -6 -14 -20 -20 -14 -7 -23 -15 -21 -20 3 -4 -2 -14 -10 -22 -8
-9 -15 -18 -15 -22 0 -3 -14 -19 -31 -36 -17 -17 -29 -33 -25 -36 6 -6 -19
-33 -31 -33 -5 0 -17 -16 -26 -35 -9 -19 -22 -35 -28 -35 -6 0 -9 -7 -5 -15 3
-8 1 -15 -4 -15 -6 0 -10 -6 -10 -14 0 -8 -7 -17 -16 -20 -10 -4 -14 -14 -11
-26 3 -12 0 -20 -7 -20 -14 0 -66 -57 -58 -64 2 -3 -3 -17 -12 -30 -9 -14 -16
-32 -16 -41 0 -8 -5 -15 -11 -15 -5 0 -8 -4 -5 -9 6 -10 -16 -61 -26 -61 -5 0
-8 -7 -8 -15 0 -8 -5 -15 -11 -15 -5 0 -8 -4 -5 -9 4 -5 2 -11 -3 -13 -6 -1
-12 -15 -15 -29 -2 -15 -9 -35 -14 -45 -16 -30 -37 -88 -34 -96 1 -5 -2 -8 -7
-8 -4 0 -8 -12 -7 -27 1 -16 -7 -34 -17 -41 -10 -8 -16 -19 -14 -25 2 -7 -2
-18 -10 -25 -7 -7 -13 -22 -13 -33 0 -10 -4 -19 -8 -19 -4 0 -9 -12 -10 -27
-1 -16 -4 -44 -6 -63 -3 -19 -5 -42 -5 -51 -1 -22 -79 -105 -94 -101 -7 2 -9
0 -5 -3 4 -4 -4 -22 -17 -40 -14 -17 -22 -35 -18 -38 3 -4 2 -7 -4 -7 -8 0
-36 -51 -48 -90 -1 -3 -4 -12 -8 -20 -8 -22 -20 -72 -21 -90 -1 -8 -5 -21 -9
-27 -5 -8 -4 -13 3 -13 6 0 8 -5 4 -12 -4 -6 -8 -26 -9 -44 -2 -18 -6 -37 -9
-43 -4 -6 -3 -11 2 -11 12 0 10 -53 -3 -62 -6 -5 -5 -8 4 -8 7 0 11 -6 7 -15
-3 -8 0 -15 6 -15 7 0 6 -5 -2 -15 -7 -8 -9 -15 -4 -15 5 0 10 -10 10 -22 3
-41 16 -93 26 -105 6 -7 7 -13 4 -13 -4 0 -1 -10 6 -22 7 -13 11 -26 10 -30
-1 -5 2 -8 7 -8 10 0 27 -39 23 -53 -1 -5 2 -6 8 -2 5 3 10 0 10 -7 0 -8 9
-20 20 -28 11 -8 20 -20 20 -28 0 -7 6 -20 14 -28 10 -9 14 -37 14 -87 0 -58
11 -139 27 -197 1 -3 5 -23 10 -45 4 -22 10 -49 12 -60 3 -11 5 -26 5 -32 1
-7 5 -13 9 -13 4 0 6 -9 4 -20 -2 -11 0 -20 6 -20 5 0 9 -13 9 -30 0 -16 5
-30 11 -30 5 0 7 -5 3 -11 -6 -11 33 -109 49 -120 5 -3 9 -10 9 -15 0 -5 4
-19 9 -32 5 -13 9 -29 9 -36 0 -6 4 -16 9 -21 17 -18 62 -105 54 -105 -4 0 0
-5 10 -11 9 -6 15 -14 12 -19 -7 -11 35 -103 51 -113 8 -4 14 -12 14 -17 0
-13 18 -50 45 -95 13 -22 27 -48 31 -57 3 -10 10 -18 15 -18 5 0 16 -18 25
-40 9 -22 20 -40 25 -40 5 0 9 -6 9 -14 0 -7 7 -19 15 -26 8 -7 12 -17 8 -24
-3 -6 -3 -8 1 -4 5 4 22 -9 39 -28 18 -19 46 -50 63 -69 17 -19 29 -37 26 -40
-3 -3 0 -5 6 -5 7 0 12 -4 12 -10 0 -14 57 -70 64 -63 3 4 6 0 6 -8 0 -8 8
-22 18 -31 9 -9 26 -28 37 -42 11 -14 26 -26 33 -26 6 0 12 -7 12 -16 0 -8 5
-12 10 -9 6 3 10 0 10 -8 0 -8 9 -17 21 -20 13 -4 18 -10 13 -18 -4 -7 -3 -10
2 -7 11 7 35 -17 26 -27 -4 -4 -2 -5 4 -3 7 2 30 -16 53 -40 23 -24 41 -39 41
-35 0 4 4 3 8 -3 11 -16 222 -176 222 -168 0 4 9 -3 20 -16 11 -13 20 -20 20
-16 0 4 7 1 15 -6 34 -31 43 -36 49 -31 3 4 6 1 6 -6 0 -7 4 -10 9 -7 5 4 11
3 13 -2 3 -9 79 -57 90 -57 4 0 13 -6 20 -12 6 -7 20 -13 29 -13 10 0 19 -4
21 -9 2 -7 99 -61 118 -66 3 -1 23 -10 45 -20 74 -33 90 -38 103 -36 6 1 12
-3 12 -9 0 -6 5 -8 10 -5 6 3 10 1 10 -6 0 -7 3 -10 6 -6 3 3 25 -3 49 -13 24
-10 46 -16 50 -12 3 4 9 1 13 -5 4 -6 18 -13 32 -14 14 -2 27 -7 30 -11 3 -4
16 -9 28 -11 12 -2 25 -6 28 -10 4 -4 17 -7 29 -7 12 0 25 -3 29 -7 4 -4 17
-8 29 -10 23 -2 62 -10 62 -13 0 -1 9 -3 20 -5 11 -2 36 -7 55 -11 63 -13 75
-14 112 -17 21 -2 41 -6 44 -10 4 -4 29 -7 55 -7 26 0 50 -4 53 -9 3 -5 19 -7
36 -5 17 2 29 0 26 -4 -4 -6 43 -8 52 -2 8 7 82 4 82 -3 0 -5 5 -5 11 -2 15
10 129 11 129 2 0 -5 5 -5 11 -1 18 11 148 10 141 -1 -3 -5 1 -4 10 2 8 7 17
10 20 7 3 -2 25 0 49 5 24 6 67 12 94 14 28 1 55 5 60 8 6 3 27 5 48 4 20 -1
37 2 37 6 0 4 16 6 36 5 20 -1 38 2 41 6 2 5 9 6 14 3 5 -4 9 -2 9 3 0 6 14 9
30 8 17 -1 30 1 30 6 0 4 7 5 15 2 8 -4 15 -1 15 6 0 6 8 10 18 9 9 -1 37 4
62 11 25 8 50 14 55 15 6 0 16 7 23 15 8 9 11 10 7 2 -6 -10 -3 -11 11 -3 30
15 58 24 72 22 6 -1 12 3 12 9 0 6 6 10 13 8 6 -1 41 9 77 24 89 36 104 41
113 40 4 -1 7 2 7 7 0 5 10 12 23 16 12 4 24 8 27 10 71 32 106 50 112 59 5 6
8 7 8 1 0 -5 6 -3 13 5 12 15 30 22 54 23 7 0 10 4 7 9 -3 4 -1 8 4 8 5 0 25
11 45 24 19 13 38 22 41 18 3 -3 6 0 6 6 0 6 8 13 19 17 10 3 29 14 42 25 13
11 29 23 34 28 6 4 13 9 17 10 16 4 138 96 138 104 0 4 5 8 11 8 7 0 31 17 54
38 24 20 67 59 97 85 29 27 60 52 68 57 8 6 12 10 9 10 -4 0 12 19 35 43 22
24 44 42 49 40 4 -2 7 1 7 7 0 6 18 29 40 50 23 22 38 40 34 40 -4 0 9 16 29
35 21 20 37 38 37 41 0 11 28 33 34 26 4 -3 4 1 1 10 -4 10 0 20 12 27 11 5
28 26 38 45 11 20 23 36 27 36 5 0 8 7 8 15 0 9 7 18 15 21 8 4 12 10 9 15 -3
5 -1 9 5 9 5 0 12 8 15 18 4 10 14 27 24 38 9 10 26 37 37 59 11 22 23 42 26
45 4 3 17 25 29 50 12 25 27 48 32 51 5 3 9 8 7 10 -1 2 9 27 22 54 12 28 24
52 24 55 7 23 48 100 53 100 4 0 8 8 9 18 2 26 7 43 25 82 26 58 38 92 40 118
1 6 6 12 12 12 6 0 4 5 -4 10 -11 7 -11 10 -2 10 7 0 11 4 8 9 -4 5 -2 11 4
13 5 1 11 15 12 31 1 15 5 27 8 27 3 0 7 12 8 27 1 15 6 29 10 32 4 3 7 21 7
40 -1 19 4 35 12 38 10 4 11 9 3 18 -8 10 -8 15 1 20 8 6 7 10 -2 16 -11 7
-11 9 2 9 11 0 15 9 14 35 0 19 4 35 9 35 5 0 6 3 3 7 -4 3 -1 13 6 21 10 13
9 14 -3 7 -12 -7 -13 -6 -4 6 6 8 11 31 10 52 0 20 2 38 6 40 6 2 17 116 21
215 1 28 5 52 9 52 4 0 3 11 -2 25 -7 18 -6 25 3 25 8 0 8 3 2 8 -6 4 -11 16
-11 27 0 11 5 23 11 27 6 5 7 8 0 8 -9 0 -13 94 -5 110 1 3 1 10 0 15 -1 6 -4
33 -6 60 -8 117 -14 182 -20 210 -4 17 -9 44 -10 60 -9 76 -14 106 -20 117 -4
6 -9 23 -11 37 -8 53 -11 66 -13 66 -4 0 -11 45 -13 78 -1 15 -7 27 -14 27 -6
0 -10 8 -8 18 1 9 -3 23 -9 31 -9 12 -8 13 4 6 11 -6 11 -4 -2 11 -9 10 -16
21 -16 24 0 4 -16 65 -27 100 -1 3 -7 18 -13 33 -7 16 -12 35 -12 43 0 8 -4
14 -8 14 -9 0 -37 78 -34 93 1 4 -2 7 -7 7 -5 0 -12 11 -15 25 -4 14 -11 25
-16 25 -5 0 -7 7 -4 15 4 8 1 15 -5 15 -6 0 -11 3 -10 8 2 14 -14 52 -22 52
-5 0 -6 6 -3 14 3 7 -2 16 -11 20 -10 3 -15 12 -11 21 3 8 2 15 -3 15 -5 0
-18 19 -30 43 -37 71 -55 102 -68 110 -7 4 -13 14 -13 21 0 7 -9 23 -20 36
-11 13 -20 26 -20 30 0 4 -8 16 -17 28 -10 11 -34 43 -53 71 -19 28 -38 50
-42 51 -5 0 -8 7 -8 15 0 8 -4 15 -10 15 -5 0 -10 7 -10 15 0 8 -7 15 -17 15
-9 0 -13 3 -10 6 3 4 -6 18 -21 33 -15 14 -43 46 -63 71 -35 43 -179 191 -179
184 0 -2 -8 4 -18 14 -62 58 -101 89 -106 84 -3 -3 -6 2 -6 11 0 10 -7 17 -15
17 -8 0 -15 5 -15 12 0 6 -2 9 -5 6 -6 -6 -35 16 -85 62 -14 14 -31 26 -36 27
-5 2 -17 10 -26 18 -10 8 -18 12 -18 8 0 -4 -7 2 -16 13 -8 10 -13 12 -9 4 4
-8 -2 -4 -13 9 -10 13 -24 21 -30 17 -5 -3 -12 1 -16 9 -3 8 -12 15 -21 15 -8
0 -15 5 -15 10 0 6 -6 10 -14 10 -8 0 -21 8 -28 18 -7 9 -22 19 -33 20 -11 2
-22 7 -25 11 -9 12 -150 81 -150 73 0 -4 -4 -2 -8 4 -6 9 -80 48 -93 49 -3 0
-30 11 -60 24 -111 48 -119 51 -119 40 0 -6 -7 -3 -16 5 -8 9 -24 16 -35 16
-10 0 -19 5 -19 10 0 6 -11 10 -24 10 -14 0 -27 4 -30 9 -3 5 -15 7 -26 4 -11
-3 -20 -1 -20 5 0 6 -9 9 -20 7 -11 -2 -20 1 -20 6 0 6 -4 8 -9 4 -5 -3 -12
-1 -15 4 -3 5 -20 8 -36 7 -17 -1 -35 3 -40 10 -6 6 -21 10 -35 8 -14 -1 -25
1 -25 5 0 4 -19 8 -42 10 -23 1 -46 5 -52 9 -6 4 -24 7 -41 8 -53 2 -95 8 -95
14 0 3 -32 6 -71 7 -40 1 -75 5 -78 10 -6 8 -158 11 -325 5z m-196 -173 c0 -8
4 -8 14 0 10 8 16 9 21 1 3 -6 12 -7 18 -3 17 10 47 11 47 1 0 -5 6 -6 12 -2
19 12 48 12 48 1 0 -5 7 -4 15 3 12 10 15 10 15 -1 0 -11 2 -11 10 1 8 12 11
13 19 1 6 -10 10 -10 16 -1 6 9 10 9 16 -1 7 -11 9 -11 9 -1 0 8 8 11 23 7 48
-10 94 -17 142 -20 28 -2 50 -4 50 -5 0 -4 43 -10 75 -11 19 -1 40 -5 45 -9 6
-3 21 -6 35 -5 14 1 34 -3 45 -9 11 -5 35 -10 53 -12 19 -1 39 -7 44 -12 6 -6
17 -8 24 -5 8 3 21 0 29 -7 8 -6 18 -9 24 -6 5 4 16 0 24 -8 8 -8 17 -13 19
-10 3 2 18 -1 34 -7 16 -7 34 -13 41 -15 6 -1 29 -8 50 -15 21 -7 41 -12 46
-11 4 1 7 -3 7 -8 0 -5 3 -9 8 -9 4 1 9 0 12 -1 3 -1 12 -3 20 -5 30 -7 125
-50 132 -60 4 -5 8 -6 8 -1 0 5 9 1 19 -8 11 -10 25 -15 30 -11 6 3 11 2 11
-3 0 -6 17 -17 38 -26 20 -9 64 -32 97 -51 33 -19 67 -38 75 -42 8 -4 20 -14
27 -22 6 -9 15 -13 19 -9 4 4 18 -4 31 -18 12 -14 23 -22 23 -19 0 9 93 -57
103 -72 4 -7 14 -13 20 -13 7 0 19 -9 27 -20 8 -11 19 -20 25 -20 5 0 29 -18
53 -40 23 -22 46 -40 50 -40 4 0 14 -9 22 -20 8 -11 20 -20 27 -20 7 0 13 -6
13 -14 0 -8 8 -17 18 -21 9 -3 34 -26 55 -51 20 -25 37 -42 37 -39 0 6 33 -31
70 -79 8 -11 32 -37 53 -59 20 -21 37 -42 37 -45 0 -4 14 -22 31 -39 16 -18
28 -33 25 -33 -5 0 1 -9 47 -62 9 -12 17 -24 17 -28 0 -4 9 -17 20 -30 11 -12
17 -27 13 -33 -3 -6 -1 -7 5 -3 11 6 14 1 11 -20 0 -3 8 -12 18 -20 10 -7 14
-14 10 -14 -4 0 1 -10 13 -22 11 -12 25 -37 32 -55 7 -18 16 -33 21 -33 4 0 5
-4 2 -10 -3 -5 -2 -10 4 -10 5 0 13 -10 17 -22 3 -13 13 -31 22 -40 8 -10 12
-18 9 -18 -3 0 8 -26 24 -57 16 -31 27 -63 25 -70 -3 -8 -2 -12 3 -8 9 5 48
-83 43 -97 -1 -5 3 -8 9 -8 5 0 8 -4 4 -9 -3 -5 0 -13 6 -16 5 -4 8 -13 5 -20
-3 -8 -2 -15 2 -17 12 -5 54 -136 48 -147 -3 -5 -1 -11 5 -13 7 -2 13 -15 14
-28 1 -14 5 -33 10 -42 4 -10 5 -24 2 -32 -3 -8 -2 -16 3 -18 5 -2 11 -12 13
-23 1 -11 7 -26 11 -34 7 -11 6 -12 -5 -6 -11 7 -12 6 -2 -7 7 -8 10 -18 6
-21 -3 -4 -2 -7 3 -7 6 0 9 -17 9 -37 -1 -21 2 -43 6 -48 8 -11 14 -69 24
-229 3 -44 10 -85 16 -92 6 -8 6 -14 0 -18 -6 -4 -6 -18 -1 -36 5 -19 5 -30
-1 -30 -6 0 -5 -8 1 -20 8 -15 8 -20 -1 -20 -9 0 -9 -3 0 -14 7 -8 8 -16 4
-19 -5 -3 -8 -26 -7 -51 1 -25 -1 -46 -5 -46 -3 0 -6 -33 -5 -73 0 -39 -2 -76
-5 -82 -3 -5 -7 -30 -8 -53 -1 -24 -6 -56 -11 -71 -6 -15 -9 -42 -7 -59 1 -18
-2 -32 -8 -32 -6 0 -7 -3 -4 -6 3 -4 2 -15 -4 -25 -7 -14 -6 -19 3 -19 10 0
10 -2 0 -9 -8 -4 -13 -10 -12 -12 2 -5 -10 -59 -17 -79 -4 -8 -7 -19 -7 -25
-2 -13 -16 -74 -22 -98 -3 -9 -10 -15 -15 -12 -5 3 -6 -1 -3 -10 4 -9 2 -26
-4 -38 -22 -46 -51 -135 -45 -141 4 -3 1 -6 -5 -6 -7 0 -12 -9 -12 -20 0 -11
-4 -20 -10 -20 -5 0 -9 -3 -8 -7 3 -17 -90 -216 -103 -221 -5 -2 -9 -11 -9
-20 0 -9 -9 -28 -20 -42 -11 -14 -20 -30 -20 -36 0 -5 -9 -20 -20 -32 -12 -12
-17 -22 -13 -22 4 0 3 -4 -3 -8 -5 -4 -25 -31 -44 -60 -18 -28 -37 -52 -42
-52 -4 0 -7 -3 -6 -7 3 -16 -15 -43 -25 -36 -5 3 -7 1 -4 -4 4 -6 -11 -31 -33
-56 -22 -25 -40 -48 -40 -51 0 -7 -47 -59 -144 -159 -44 -45 -79 -83 -78 -84
1 -2 0 -3 -3 -3 -10 0 -71 -65 -68 -72 2 -5 -2 -8 -10 -8 -8 0 -36 -20 -63
-45 -26 -25 -50 -45 -53 -45 -3 0 -18 -11 -33 -25 -15 -14 -30 -25 -34 -25 -4
0 -15 -10 -25 -22 -11 -11 -19 -17 -19 -12 0 5 -4 4 -8 -1 -4 -6 -27 -24 -52
-40 -25 -17 -47 -33 -48 -38 -2 -4 -7 -5 -12 -2 -4 2 -15 -4 -25 -15 -10 -11
-24 -20 -30 -20 -7 0 -18 -7 -25 -15 -7 -8 -16 -12 -21 -10 -4 3 -12 -3 -18
-12 -6 -10 -11 -15 -11 -11 0 4 -27 -8 -59 -27 -33 -18 -76 -39 -95 -46 -20
-7 -36 -17 -36 -21 0 -4 -8 -8 -19 -8 -10 0 -24 -7 -31 -15 -7 -9 -15 -14 -17
-11 -3 2 -28 -6 -58 -19 -29 -13 -56 -21 -59 -18 -3 4 -6 1 -6 -5 0 -7 -3 -11
-7 -10 -10 2 -64 -13 -78 -21 -13 -7 -22 -10 -62 -17 -18 -4 -33 -10 -33 -15
0 -4 -9 -6 -20 -4 -11 2 -20 0 -20 -5 0 -5 -9 -7 -20 -5 -11 2 -20 -1 -20 -6
0 -6 -6 -9 -12 -6 -7 2 -30 -2 -50 -9 -21 -7 -38 -11 -38 -7 0 3 -6 1 -12 -4
-7 -5 -26 -10 -41 -11 -15 -1 -36 -6 -46 -11 -12 -7 -22 -6 -31 2 -10 9 -11 9
-6 0 3 -6 2 -14 -4 -18 -5 -3 -10 -1 -10 5 0 6 -4 9 -8 6 -5 -3 -25 -6 -45 -8
-21 -1 -37 -5 -37 -8 0 -4 -40 -6 -90 -6 -49 1 -90 -3 -90 -7 0 -4 -83 -7
-185 -7 -134 1 -185 5 -185 13 0 7 -4 6 -10 -3 -5 -8 -10 -10 -10 -5 0 6 -24
10 -57 9 -32 -1 -62 2 -68 5 -10 7 -54 13 -105 15 -14 1 -28 5 -31 10 -4 4
-25 8 -48 8 -22 0 -41 4 -41 10 0 6 -11 8 -25 6 -14 -3 -25 -2 -25 2 0 4 -17
10 -37 13 -37 6 -73 14 -83 17 -3 1 -8 2 -12 1 -5 0 -8 4 -8 10 0 6 -6 9 -12
6 -7 -2 -33 5 -57 15 -25 10 -50 17 -57 14 -8 -3 -20 1 -28 9 -8 8 -22 15 -30
15 -9 0 -16 5 -16 11 0 5 -4 8 -8 5 -5 -3 -21 2 -36 10 -16 7 -32 14 -36 14
-5 0 -42 16 -84 35 -42 20 -77 35 -79 33 -2 -2 -11 5 -21 15 -10 9 -22 15 -27
12 -5 -4 -9 0 -9 7 0 8 -10 14 -22 15 -11 1 -24 6 -27 10 -3 5 -18 14 -33 20
-16 7 -28 17 -28 23 0 5 -6 10 -14 10 -7 0 -30 11 -50 25 -20 13 -36 22 -36
19 0 -2 -10 4 -22 16 -12 11 -28 20 -35 20 -7 0 -13 3 -13 8 0 4 -17 18 -38
32 -45 31 -58 40 -83 62 -10 10 -23 18 -28 18 -5 0 -11 7 -15 15 -3 8 -17 20
-31 27 -14 6 -25 18 -25 26 0 9 -3 13 -6 9 -4 -3 -23 9 -43 28 -20 19 -40 35
-44 35 -5 0 -5 5 -2 10 3 5 0 10 -7 10 -7 0 -24 14 -38 32 -31 39 -82 88 -92
88 -5 0 -8 5 -8 11 0 7 -9 19 -20 29 -11 9 -26 33 -34 52 -8 19 -30 48 -49 65
-18 16 -36 37 -40 46 -3 9 -11 17 -17 17 -6 0 -9 4 -5 9 3 5 1 12 -5 16 -5 3
-10 15 -10 25 0 13 -5 17 -15 14 -9 -4 -15 0 -15 10 0 9 -4 16 -10 16 -5 0 -7
6 -5 13 3 6 -9 27 -25 46 -17 19 -33 45 -36 58 -4 12 -10 23 -14 23 -10 0 -40
58 -40 77 0 7 -4 13 -10 13 -5 0 -10 6 -10 14 0 8 -5 16 -12 18 -6 2 -12 11
-14 20 -2 15 -9 32 -54 135 -13 29 -23 60 -23 69 0 9 -11 27 -24 40 -13 13
-21 29 -18 35 4 5 1 16 -5 24 -7 8 -10 22 -6 30 3 8 1 15 -4 15 -6 0 -10 9
-10 20 0 11 -4 20 -8 20 -5 0 -8 10 -7 23 1 12 -2 28 -8 35 -5 7 -7 15 -4 19
4 3 2 12 -5 20 -10 12 -18 48 -21 91 0 6 -4 12 -8 12 -4 0 -7 14 -7 32 1 18
-3 33 -9 35 -6 2 -8 15 -5 28 2 15 0 25 -7 25 -7 0 -9 5 -6 10 4 6 2 16 -3 23
-15 18 -10 125 6 132 7 2 15 -2 18 -10 4 -8 10 -12 15 -9 5 3 12 -2 15 -10 3
-9 12 -16 20 -16 8 0 14 -5 14 -11 0 -5 4 -8 9 -4 5 3 17 -2 25 -11 9 -8 16
-13 16 -9 0 3 14 -1 30 -10 17 -9 30 -19 30 -24 0 -8 15 -12 90 -26 126 -23
299 -33 304 -18 3 7 14 10 25 8 11 -2 23 0 26 5 3 4 16 7 30 5 14 -1 28 2 31
6 3 5 15 9 28 9 12 0 26 3 30 7 4 5 11 8 14 8 4 0 21 10 39 23 17 12 35 22 41
22 5 0 21 9 36 21 14 11 26 18 26 14 0 -3 13 8 30 25 16 16 32 30 35 30 4 0
13 7 21 15 9 8 13 15 10 15 -4 0 7 14 24 31 16 17 27 36 23 42 -3 5 -2 7 4 4
10 -6 38 40 35 56 -1 4 3 7 9 7 6 0 9 9 6 20 -3 11 -1 20 4 20 5 0 9 7 9 15 0
8 6 15 13 15 8 0 7 4 -3 10 -11 7 -11 10 -2 10 7 0 11 4 7 9 -3 5 0 13 5 16 6
4 10 17 8 28 -1 12 1 27 5 34 11 18 12 235 0 258 -5 11 -8 30 -7 43 0 12 -3
22 -7 22 -5 0 -8 3 -7 8 2 11 -13 64 -26 87 -5 11 -11 22 -12 25 -1 3 -5 15
-9 28 -4 12 -11 22 -15 22 -5 0 -11 8 -15 19 -8 26 -112 128 -146 143 -16 7
-29 16 -29 20 0 5 -6 8 -12 8 -7 1 -28 14 -47 30 -19 16 -38 27 -43 24 -4 -3
-21 4 -37 15 -15 11 -31 18 -35 14 -3 -3 -6 -2 -6 3 0 12 -29 14 -220 16 -154
1 -169 0 -223 -21 -15 -6 -42 -13 -60 -16 -17 -4 -34 -10 -37 -14 -5 -8 -45
-24 -62 -26 -3 0 -18 -13 -32 -28 -14 -15 -26 -24 -27 -20 0 4 -2 18 -3 31 -2
12 8 48 20 79 13 31 21 60 18 65 -3 4 -1 8 4 8 6 0 13 16 16 35 4 19 12 35 18
35 5 0 8 7 4 15 -3 8 -1 15 5 15 6 0 9 6 6 13 -2 6 7 31 19 53 13 23 21 44 17
47 -3 4 0 13 6 21 7 8 10 20 6 26 -3 5 -3 10 2 10 11 0 43 58 43 76 0 8 11 29
26 47 14 18 24 36 24 41 -1 5 3 12 8 15 6 3 12 13 14 20 2 8 11 23 21 33 9 10
17 25 17 33 0 8 5 15 11 15 5 0 8 4 5 8 -3 5 9 25 25 45 17 20 27 37 22 37 -4
0 -3 4 2 8 6 4 23 32 38 62 15 30 44 73 64 95 20 22 47 56 62 75 45 60 361
370 378 370 3 0 27 18 54 41 27 22 49 38 49 34 0 -3 6 0 14 7 28 26 71 56 80
56 5 0 13 7 18 16 5 9 13 14 19 11 5 -4 9 -1 9 4 0 6 7 11 15 11 8 0 15 6 15
14 0 9 7 13 20 11 11 -2 20 0 20 6 0 5 17 17 38 27 20 9 43 23 50 30 12 11 21
14 38 11 4 0 10 3 13 8 6 8 100 58 111 58 3 1 15 6 26 13 12 6 24 8 28 5 3 -3
6 -1 6 5 0 7 4 12 9 12 5 0 26 8 47 17 41 17 60 23 82 25 6 1 12 5 12 10 0 4
8 8 18 8 10 0 22 3 26 8 4 4 15 7 24 7 9 1 27 7 40 14 13 7 30 10 37 7 8 -3
15 -1 17 4 2 5 17 12 33 15 69 14 79 16 89 23 6 3 22 7 36 8 14 1 27 3 30 4 3
1 8 2 13 1 4 0 7 3 7 7 0 4 16 7 35 7 20 -1 38 2 41 7 3 4 30 8 60 8 30 0 54
4 54 8 0 4 24 7 53 6 28 -1 57 2 62 5 6 4 29 7 52 7 24 -1 43 2 43 7 0 4 5 7
10 7 6 0 10 -5 10 -11z m-2060 -1952 c0 -6 5 -6 13 0 24 18 227 3 227 -17 0
-5 8 -7 18 -5 49 7 212 -132 247 -211 9 -22 24 -55 32 -74 8 -19 17 -44 20
-55 12 -56 15 -74 20 -115 9 -92 3 -320 -9 -320 -5 0 -7 -3 -6 -7 5 -18 -13
-93 -22 -93 -6 0 -9 -3 -8 -7 4 -15 -24 -83 -34 -83 -5 0 -8 -6 -6 -12 3 -7
-8 -26 -24 -43 -15 -16 -31 -38 -34 -48 -3 -9 -10 -15 -15 -12 -5 4 -9 1 -9
-4 0 -6 -5 -11 -10 -11 -6 0 -22 -12 -35 -26 -14 -15 -25 -23 -25 -19 0 4 -10
0 -22 -11 -13 -12 -18 -13 -13 -4 8 13 7 13 -9 0 -27 -22 -76 -36 -123 -35
-24 0 -43 -3 -43 -8 0 -5 -44 -6 -97 -3 -144 8 -153 9 -153 17 0 5 -22 11 -50
15 -27 4 -50 11 -50 17 0 6 -3 7 -7 4 -3 -4 -15 3 -27 16 -12 12 -30 22 -41
22 -17 0 -85 56 -85 70 0 3 -8 15 -18 26 -35 37 -88 162 -86 202 1 9 -2 17 -6
17 -4 0 -7 6 -8 13 0 6 -3 42 -7 78 -10 120 -12 169 -3 169 4 0 3 11 -2 25 -5
14 -6 25 -1 25 5 0 8 17 6 38 -1 20 1 42 6 47 4 6 9 22 11 35 2 14 6 30 9 35
5 8 20 57 23 75 1 3 17 30 36 60 19 30 33 58 32 62 -1 4 7 10 18 13 11 4 18
10 15 15 -4 7 5 14 27 19 4 1 21 15 39 32 17 16 41 29 53 29 12 0 27 5 32 10
32 32 204 63 204 37z"/>
<path d="M5365 4730 l-90 -5 0 -625 0 -625 311 -3 c259 -2 313 0 317 12 5 11
-34 13 -234 13 -159 0 -243 3 -251 11 -11 11 -15 555 -4 589 5 17 23 18 221
16 179 -2 215 0 215 11 0 11 -19 15 -75 18 -41 2 -75 -1 -75 -5 0 -5 -5 -5
-11 -1 -13 8 -138 8 -146 0 -3 -3 -11 -2 -16 1 -6 4 -29 6 -52 5 -70 -4 -68
-13 -67 277 0 143 3 265 7 271 3 6 11 8 16 5 5 -4 9 -2 9 3 0 6 14 7 35 2 19
-4 37 -4 40 0 2 4 23 4 45 0 22 -4 40 -4 40 0 0 4 18 4 40 0 22 -4 43 -4 45 0
3 4 20 4 39 0 22 -5 38 -4 45 3 8 8 11 7 11 -1 0 -10 5 -10 20 -2 15 8 20 8
20 -1 0 -9 3 -9 14 0 10 9 16 9 21 1 5 -8 11 -8 19 -1 7 6 16 8 19 4 4 -3 7 1
7 10 0 10 -8 17 -17 17 -267 4 -446 4 -518 0z"/>
<path d="M6738 4734 c-4 -4 -33 -7 -65 -8 l-58 -1 -1 -615 c0 -338 2 -621 4
-627 3 -9 26 -13 67 -13 52 0 63 3 66 18 7 33 -6 1254 -13 1246z"/>
<path d="M3949 4713 c-3 -10 -4 -292 -3 -628 l0 -610 237 0 c130 0 237 -4 237
-8 0 -4 9 -3 20 3 11 6 20 7 20 3 0 -4 29 -6 65 -5 43 3 65 8 65 16 0 10 -55
13 -239 13 -131 0 -243 3 -249 6 -13 9 -22 57 -10 57 5 0 4 9 -2 20 -8 15 -8
20 2 20 9 0 9 3 1 11 -8 8 -8 20 -3 35 6 14 6 26 0 29 -6 3 -6 15 0 30 5 13 6
26 2 29 -8 5 -6 80 2 102 2 6 2 15 -2 18 -10 11 -8 110 3 118 7 5 7 8 0 8 -11
0 -12 337 -1 365 3 9 2 14 -2 11 -4 -2 -7 29 -7 70 0 41 4 74 9 74 6 0 5 5 -1
11 -8 8 -8 20 -2 36 5 14 5 22 0 19 -5 -3 -8 5 -7 19 0 14 5 25 9 25 4 0 3 9
-3 20 -8 15 -8 20 1 20 8 0 8 4 -1 15 -10 12 -10 15 1 15 12 0 12 2 0 9 -10 6
-10 10 -1 16 22 14 -12 25 -76 25 -51 0 -62 -3 -65 -17z"/>
<path d="M744 4758 c-3 -4 -10 -6 -15 -3 -5 4 -9 1 -9 -4 0 -6 -3 -10 -7 -9
-5 1 -24 -4 -43 -11 -19 -8 -38 -14 -42 -15 -3 -1 -18 -11 -32 -23 -15 -13
-29 -23 -32 -23 -10 0 -54 -54 -54 -65 0 -6 -8 -17 -19 -24 -11 -8 -16 -21
-14 -32 3 -11 1 -19 -5 -19 -6 0 -9 -17 -7 -40 2 -22 -1 -40 -5 -40 -5 0 -7
-17 -4 -37 8 -63 12 -88 14 -93 1 -3 2 -9 1 -14 -1 -4 4 -15 11 -23 7 -8 13
-20 14 -27 2 -11 99 -114 110 -115 17 -3 84 -37 84 -44 0 -4 4 -6 9 -2 5 3 17
-3 27 -12 10 -10 19 -17 21 -16 8 6 63 -10 63 -18 0 -5 3 -8 8 -7 8 1 70 -24
117 -48 37 -19 95 -70 95 -84 0 -6 4 -9 9 -6 10 7 50 -73 54 -107 1 -12 6 -25
11 -29 6 -4 5 -12 -3 -21 -9 -12 -9 -16 0 -19 9 -3 9 -10 -1 -28 -8 -14 -15
-38 -17 -53 -2 -16 -10 -35 -18 -43 -8 -9 -15 -20 -15 -25 0 -21 -102 -104
-113 -92 -4 3 -7 2 -7 -4 0 -13 -95 -38 -109 -29 -5 3 -11 1 -13 -5 -3 -9 -10
-9 -27 1 -18 9 -22 9 -16 0 6 -9 2 -9 -14 -1 -15 8 -21 9 -21 1 0 -6 -5 -8
-12 -4 -7 5 -19 9 -28 11 -8 1 -30 5 -49 8 -19 3 -40 10 -47 16 -8 6 -14 9
-14 5 0 -8 -60 22 -82 42 -10 8 -18 11 -18 6 0 -5 -5 -2 -10 6 -7 11 -12 12
-20 4 -17 -17 21 -48 89 -74 31 -12 63 -25 72 -30 10 -5 21 -4 29 3 10 9 11 9
5 -2 -5 -9 -3 -12 6 -9 8 3 23 1 34 -5 27 -14 166 -15 171 -2 3 6 20 10 39 10
19 -1 35 2 35 7 0 4 9 8 20 8 11 0 20 5 20 10 0 6 9 10 21 10 11 0 17 4 14 10
-3 5 0 7 8 4 8 -3 17 2 21 11 3 9 10 14 15 10 5 -3 17 5 25 17 9 12 16 19 16
15 0 -4 9 1 19 10 11 9 18 20 15 25 -3 4 -1 8 5 8 6 0 18 16 27 35 9 19 21 35
26 35 6 0 8 7 4 15 -3 8 0 18 7 22 13 9 18 65 5 57 -4 -3 -4 5 1 18 11 30 5
122 -9 126 -5 2 -8 7 -5 12 19 31 -91 163 -164 197 -20 9 -39 21 -42 26 -4 5
-11 7 -17 3 -6 -3 -12 -3 -14 1 -4 11 -67 43 -84 43 -8 0 -14 4 -14 9 0 5 -14
11 -31 15 -17 3 -28 9 -26 13 3 5 -6 9 -20 9 -13 1 -32 9 -42 18 -10 9 -23 16
-29 16 -7 0 -12 5 -12 10 0 6 -7 10 -15 10 -8 0 -15 4 -15 9 0 5 -9 12 -20 16
-11 3 -19 10 -17 14 1 4 -9 22 -23 40 -13 18 -26 44 -28 59 -2 15 -7 32 -13
38 -5 6 -6 13 -3 17 3 3 7 20 8 39 5 57 6 59 15 54 5 -4 8 2 6 11 -1 10 2 24
8 31 5 6 6 12 1 12 -4 0 2 9 14 20 12 12 22 24 22 28 0 10 62 47 73 44 4 -1 7
3 7 10 0 6 3 8 7 5 3 -4 12 -2 20 5 17 14 191 12 230 -3 16 -6 30 -11 33 -11
3 0 15 -4 28 -9 13 -5 27 -9 32 -9 5 0 10 -4 12 -9 4 -12 33 -18 36 -8 5 19 1
34 -10 34 -23 1 -43 8 -50 18 -4 5 -13 10 -20 10 -28 2 -88 18 -88 24 0 3 -20
6 -44 7 -27 0 -42 -4 -39 -9 4 -6 1 -7 -8 -2 -18 12 -98 14 -105 3z"/>
</g>
</svg>
