<svg width="249" height="23" viewBox="0 0 249 23" fill="none" xmlns="http://www.w3.org/2000/svg">
<path d="M6 18V2.736H0.096V1.2H13.68V2.736H7.776V18H6ZM22.5893 5.28C23.6133 5.28 24.5093 5.48 25.2773 5.88C26.0613 6.264 26.6693 6.856 27.1013 7.656C27.5493 8.456 27.7733 9.464 27.7733 10.68V18H26.0693V10.848C26.0693 9.52 25.7333 8.52 25.0613 7.848C24.4053 7.16 23.4773 6.816 22.2773 6.816C21.3813 6.816 20.5973 7 19.9253 7.368C19.2693 7.72 18.7573 8.24 18.3893 8.928C18.0373 9.6 17.8613 10.416 17.8613 11.376V18H16.1573V0.191999H17.8613V8.856L17.5253 8.208C17.9253 7.296 18.5653 6.584 19.4453 6.072C20.3253 5.544 21.3733 5.28 22.5893 5.28ZM37.728 18.12C36.416 18.12 35.264 17.848 34.272 17.304C33.28 16.744 32.504 15.984 31.944 15.024C31.384 14.048 31.104 12.936 31.104 11.688C31.104 10.44 31.368 9.336 31.896 8.376C32.44 7.416 33.176 6.664 34.104 6.12C35.048 5.56 36.104 5.28 37.272 5.28C38.456 5.28 39.504 5.552 40.416 6.096C41.344 6.624 42.072 7.376 42.6 8.352C43.128 9.312 43.392 10.424 43.392 11.688C43.392 11.768 43.384 11.856 43.368 11.952C43.368 12.032 43.368 12.12 43.368 12.216H32.4V10.944H42.456L41.784 11.448C41.784 10.536 41.584 9.728 41.184 9.024C40.8 8.304 40.272 7.744 39.6 7.344C38.928 6.944 38.152 6.744 37.272 6.744C36.408 6.744 35.632 6.944 34.944 7.344C34.256 7.744 33.72 8.304 33.336 9.024C32.952 9.744 32.76 10.568 32.76 11.496V11.76C32.76 12.72 32.968 13.568 33.384 14.304C33.816 15.024 34.408 15.592 35.16 16.008C35.928 16.408 36.8 16.608 37.776 16.608C38.544 16.608 39.256 16.472 39.912 16.2C40.584 15.928 41.16 15.512 41.64 14.952L42.6 16.056C42.04 16.728 41.336 17.24 40.488 17.592C39.656 17.944 38.736 18.12 37.728 18.12ZM59.6456 18.12C58.5416 18.12 57.5496 17.872 56.6696 17.376C55.7896 16.864 55.0936 16.128 54.5816 15.168C54.0696 14.208 53.8136 13.048 53.8136 11.688C53.8136 10.312 54.0696 9.152 54.5816 8.208C55.1096 7.248 55.8136 6.52 56.6936 6.024C57.5736 5.528 58.5576 5.28 59.6456 5.28C60.8456 5.28 61.9176 5.552 62.8616 6.096C63.8216 6.624 64.5736 7.368 65.1176 8.328C65.6616 9.288 65.9336 10.408 65.9336 11.688C65.9336 12.952 65.6616 14.072 65.1176 15.048C64.5736 16.008 63.8216 16.76 62.8616 17.304C61.9176 17.848 60.8456 18.12 59.6456 18.12ZM53.1416 18V0.191999H54.8456V9.12L54.6056 11.664L54.7736 14.208V18H53.1416ZM59.5256 16.608C60.4216 16.608 61.2216 16.408 61.9256 16.008C62.6296 15.592 63.1896 15.016 63.6056 14.28C64.0216 13.528 64.2296 12.664 64.2296 11.688C64.2296 10.696 64.0216 9.832 63.6056 9.096C63.1896 8.36 62.6296 7.792 61.9256 7.392C61.2216 6.976 60.4216 6.768 59.5256 6.768C58.6296 6.768 57.8216 6.976 57.1016 7.392C56.3976 7.792 55.8376 8.36 55.4216 9.096C55.0216 9.832 54.8216 10.696 54.8216 11.688C54.8216 12.664 55.0216 13.528 55.4216 14.28C55.8376 15.016 56.3976 15.592 57.1016 16.008C57.8216 16.408 58.6296 16.608 59.5256 16.608ZM74.7593 18.12C73.4473 18.12 72.2953 17.848 71.3033 17.304C70.3113 16.744 69.5353 15.984 68.9753 15.024C68.4153 14.048 68.1353 12.936 68.1353 11.688C68.1353 10.44 68.3993 9.336 68.9273 8.376C69.4713 7.416 70.2073 6.664 71.1353 6.12C72.0793 5.56 73.1353 5.28 74.3033 5.28C75.4873 5.28 76.5353 5.552 77.4473 6.096C78.3753 6.624 79.1033 7.376 79.6313 8.352C80.1593 9.312 80.4233 10.424 80.4233 11.688C80.4233 11.768 80.4153 11.856 80.3993 11.952C80.3993 12.032 80.3993 12.12 80.3993 12.216H69.4313V10.944H79.4873L78.8153 11.448C78.8153 10.536 78.6153 9.728 78.2153 9.024C77.8313 8.304 77.3033 7.744 76.6313 7.344C75.9593 6.944 75.1833 6.744 74.3033 6.744C73.4393 6.744 72.6633 6.944 71.9753 7.344C71.2873 7.744 70.7513 8.304 70.3673 9.024C69.9833 9.744 69.7913 10.568 69.7913 11.496V11.76C69.7913 12.72 69.9993 13.568 70.4153 14.304C70.8473 15.024 71.4393 15.592 72.1913 16.008C72.9593 16.408 73.8313 16.608 74.8073 16.608C75.5753 16.608 76.2873 16.472 76.9433 16.2C77.6153 15.928 78.1913 15.512 78.6713 14.952L79.6313 16.056C79.0713 16.728 78.3673 17.24 77.5193 17.592C76.6873 17.944 75.7673 18.12 74.7593 18.12ZM91.4361 18V15.216L91.3641 14.76V10.104C91.3641 9.032 91.0601 8.208 90.4521 7.632C89.8601 7.056 88.9721 6.768 87.7881 6.768C86.9721 6.768 86.1961 6.904 85.4601 7.176C84.7241 7.448 84.1001 7.808 83.5881 8.256L82.8201 6.984C83.4601 6.44 84.2281 6.024 85.1241 5.736C86.0201 5.432 86.9641 5.28 87.9561 5.28C89.5881 5.28 90.8441 5.688 91.7241 6.504C92.6201 7.304 93.0681 8.528 93.0681 10.176V18H91.4361ZM87.0921 18.12C86.1481 18.12 85.3241 17.968 84.6201 17.664C83.9321 17.344 83.4041 16.912 83.0361 16.368C82.6681 15.808 82.4841 15.168 82.4841 14.448C82.4841 13.792 82.6361 13.2 82.9401 12.672C83.2601 12.128 83.7721 11.696 84.4761 11.376C85.1961 11.04 86.1561 10.872 87.3561 10.872H91.7001V12.144H87.4041C86.1881 12.144 85.3401 12.36 84.8601 12.792C84.3961 13.224 84.1641 13.76 84.1641 14.4C84.1641 15.12 84.4441 15.696 85.0041 16.128C85.5641 16.56 86.3481 16.776 87.3561 16.776C88.3161 16.776 89.1401 16.56 89.8281 16.128C90.5321 15.68 91.0441 15.04 91.3641 14.208L91.7481 15.384C91.4281 16.216 90.8681 16.88 90.0681 17.376C89.2841 17.872 88.2921 18.12 87.0921 18.12ZM102.904 18.12C101.832 18.12 100.896 17.92 100.096 17.52C99.2963 17.12 98.6723 16.52 98.2243 15.72C97.7923 14.92 97.5763 13.92 97.5763 12.72V5.4H99.2803V12.528C99.2803 13.872 99.6083 14.888 100.264 15.576C100.936 16.248 101.872 16.584 103.072 16.584C103.952 16.584 104.712 16.408 105.352 16.056C106.008 15.688 106.504 15.16 106.84 14.472C107.192 13.784 107.368 12.96 107.368 12V5.4H109.072V18H107.44V14.544L107.704 15.168C107.304 16.096 106.68 16.824 105.832 17.352C105 17.864 104.024 18.12 102.904 18.12ZM117.805 18.12C116.621 18.12 115.709 17.8 115.069 17.16C114.429 16.52 114.109 15.616 114.109 14.448V2.616H115.813V14.352C115.813 15.088 115.997 15.656 116.365 16.056C116.749 16.456 117.293 16.656 117.997 16.656C118.749 16.656 119.373 16.44 119.869 16.008L120.469 17.232C120.133 17.536 119.725 17.76 119.245 17.904C118.781 18.048 118.301 18.12 117.805 18.12ZM111.853 6.816V5.4H119.653V6.816H111.853ZM123.433 22.776C122.841 22.776 122.273 22.68 121.729 22.488C121.201 22.296 120.745 22.008 120.361 21.624L121.153 20.352C121.473 20.656 121.817 20.888 122.185 21.048C122.569 21.224 122.993 21.312 123.457 21.312C124.017 21.312 124.497 21.152 124.897 20.832C125.313 20.528 125.705 19.984 126.073 19.2L126.889 17.352L127.081 17.088L132.265 5.4H133.945L127.633 19.512C127.281 20.328 126.889 20.976 126.457 21.456C126.041 21.936 125.585 22.272 125.089 22.464C124.593 22.672 124.041 22.776 123.433 22.776ZM126.793 18.36L120.985 5.4H122.761L127.897 16.968L126.793 18.36ZM147.762 18.12C146.546 18.12 145.45 17.848 144.474 17.304C143.514 16.744 142.754 15.984 142.194 15.024C141.634 14.048 141.354 12.936 141.354 11.688C141.354 10.424 141.634 9.312 142.194 8.352C142.754 7.392 143.514 6.64 144.474 6.096C145.434 5.552 146.53 5.28 147.762 5.28C149.01 5.28 150.114 5.552 151.074 6.096C152.05 6.64 152.81 7.392 153.354 8.352C153.914 9.312 154.194 10.424 154.194 11.688C154.194 12.936 153.914 14.048 153.354 15.024C152.81 15.984 152.05 16.744 151.074 17.304C150.098 17.848 148.994 18.12 147.762 18.12ZM147.762 16.608C148.674 16.608 149.482 16.408 150.186 16.008C150.89 15.592 151.442 15.016 151.842 14.28C152.258 13.528 152.466 12.664 152.466 11.688C152.466 10.696 152.258 9.832 151.842 9.096C151.442 8.36 150.89 7.792 150.186 7.392C149.482 6.976 148.682 6.768 147.786 6.768C146.89 6.768 146.09 6.976 145.386 7.392C144.682 7.792 144.122 8.36 143.706 9.096C143.29 9.832 143.082 10.696 143.082 11.688C143.082 12.664 143.29 13.528 143.706 14.28C144.122 15.016 144.682 15.592 145.386 16.008C146.09 16.408 146.882 16.608 147.762 16.608ZM157.961 18V3.816C157.961 2.696 158.289 1.792 158.945 1.104C159.601 0.415999 160.545 0.0719991 161.777 0.0719991C162.257 0.0719991 162.721 0.135999 163.169 0.263999C163.617 0.392 163.993 0.592 164.297 0.863999L163.721 2.136C163.481 1.928 163.201 1.776 162.881 1.68C162.561 1.568 162.217 1.512 161.849 1.512C161.129 1.512 160.577 1.712 160.193 2.112C159.809 2.512 159.617 3.104 159.617 3.888V5.808L159.665 6.6V18H157.961ZM155.705 6.816V5.4H163.505V6.816H155.705ZM177.103 18.12C175.903 18.12 174.823 17.848 173.863 17.304C172.919 16.76 172.175 16.008 171.631 15.048C171.087 14.072 170.815 12.952 170.815 11.688C170.815 10.408 171.087 9.288 171.631 8.328C172.175 7.368 172.919 6.624 173.863 6.096C174.823 5.552 175.903 5.28 177.103 5.28C178.207 5.28 179.191 5.528 180.055 6.024C180.935 6.52 181.631 7.248 182.143 8.208C182.671 9.152 182.935 10.312 182.935 11.688C182.935 13.048 182.679 14.208 182.167 15.168C181.655 16.128 180.959 16.864 180.079 17.376C179.215 17.872 178.223 18.12 177.103 18.12ZM177.223 16.608C178.119 16.608 178.919 16.408 179.623 16.008C180.343 15.592 180.903 15.016 181.303 14.28C181.719 13.528 181.927 12.664 181.927 11.688C181.927 10.696 181.719 9.832 181.303 9.096C180.903 8.36 180.343 7.792 179.623 7.392C178.919 6.976 178.119 6.768 177.223 6.768C176.343 6.768 175.551 6.976 174.847 7.392C174.143 7.792 173.583 8.36 173.167 9.096C172.751 9.832 172.543 10.696 172.543 11.688C172.543 12.664 172.751 13.528 173.167 14.28C173.583 15.016 174.143 15.592 174.847 16.008C175.551 16.408 176.343 16.608 177.223 16.608ZM181.975 18V14.208L182.143 11.664L181.903 9.12V0.191999H183.607V18H181.975ZM193.705 18.12C192.393 18.12 191.241 17.848 190.249 17.304C189.257 16.744 188.481 15.984 187.921 15.024C187.361 14.048 187.081 12.936 187.081 11.688C187.081 10.44 187.345 9.336 187.873 8.376C188.417 7.416 189.153 6.664 190.081 6.12C191.025 5.56 192.081 5.28 193.249 5.28C194.433 5.28 195.481 5.552 196.393 6.096C197.321 6.624 198.049 7.376 198.577 8.352C199.105 9.312 199.369 10.424 199.369 11.688C199.369 11.768 199.361 11.856 199.345 11.952C199.345 12.032 199.345 12.12 199.345 12.216H188.377V10.944H198.433L197.761 11.448C197.761 10.536 197.561 9.728 197.161 9.024C196.777 8.304 196.249 7.744 195.577 7.344C194.905 6.944 194.129 6.744 193.249 6.744C192.385 6.744 191.609 6.944 190.921 7.344C190.233 7.744 189.697 8.304 189.313 9.024C188.929 9.744 188.737 10.568 188.737 11.496V11.76C188.737 12.72 188.945 13.568 189.361 14.304C189.793 15.024 190.385 15.592 191.137 16.008C191.905 16.408 192.777 16.608 193.753 16.608C194.521 16.608 195.233 16.472 195.889 16.2C196.561 15.928 197.137 15.512 197.617 14.952L198.577 16.056C198.017 16.728 197.313 17.24 196.465 17.592C195.633 17.944 194.713 18.12 193.705 18.12ZM206.821 18.12C205.637 18.12 204.725 17.8 204.085 17.16C203.445 16.52 203.125 15.616 203.125 14.448V2.616H204.829V14.352C204.829 15.088 205.013 15.656 205.381 16.056C205.765 16.456 206.309 16.656 207.013 16.656C207.765 16.656 208.389 16.44 208.885 16.008L209.485 17.232C209.149 17.536 208.741 17.76 208.261 17.904C207.797 18.048 207.317 18.12 206.821 18.12ZM200.869 6.816V5.4H208.669V6.816H200.869ZM220.483 18V15.216L220.411 14.76V10.104C220.411 9.032 220.107 8.208 219.499 7.632C218.907 7.056 218.019 6.768 216.835 6.768C216.019 6.768 215.243 6.904 214.507 7.176C213.771 7.448 213.147 7.808 212.635 8.256L211.867 6.984C212.507 6.44 213.275 6.024 214.171 5.736C215.067 5.432 216.011 5.28 217.003 5.28C218.635 5.28 219.891 5.688 220.771 6.504C221.667 7.304 222.115 8.528 222.115 10.176V18H220.483ZM216.139 18.12C215.195 18.12 214.371 17.968 213.667 17.664C212.979 17.344 212.451 16.912 212.083 16.368C211.715 15.808 211.531 15.168 211.531 14.448C211.531 13.792 211.683 13.2 211.987 12.672C212.307 12.128 212.819 11.696 213.523 11.376C214.243 11.04 215.203 10.872 216.403 10.872H220.747V12.144H216.451C215.235 12.144 214.387 12.36 213.907 12.792C213.443 13.224 213.211 13.76 213.211 14.4C213.211 15.12 213.491 15.696 214.051 16.128C214.611 16.56 215.395 16.776 216.403 16.776C217.363 16.776 218.187 16.56 218.875 16.128C219.579 15.68 220.091 15.04 220.411 14.208L220.795 15.384C220.475 16.216 219.915 16.88 219.115 17.376C218.331 17.872 217.339 18.12 216.139 18.12ZM226.743 18V5.4H228.447V18H226.743ZM227.607 2.616C227.255 2.616 226.959 2.496 226.719 2.256C226.479 2.016 226.359 1.728 226.359 1.392C226.359 1.056 226.479 0.775999 226.719 0.551999C226.959 0.311999 227.255 0.191999 227.607 0.191999C227.959 0.191999 228.255 0.303999 228.495 0.527999C228.735 0.751999 228.855 1.032 228.855 1.368C228.855 1.72 228.735 2.016 228.495 2.256C228.271 2.496 227.975 2.616 227.607 2.616ZM233.189 18V0.191999H234.893V18H233.189ZM243.018 18.12C241.978 18.12 240.994 17.976 240.066 17.688C239.138 17.384 238.41 17.008 237.882 16.56L238.65 15.216C239.162 15.6 239.818 15.936 240.618 16.224C241.418 16.496 242.258 16.632 243.138 16.632C244.338 16.632 245.202 16.448 245.73 16.08C246.258 15.696 246.522 15.192 246.522 14.568C246.522 14.104 246.37 13.744 246.066 13.488C245.778 13.216 245.394 13.016 244.914 12.888C244.434 12.744 243.898 12.624 243.306 12.528C242.714 12.432 242.122 12.32 241.53 12.192C240.954 12.064 240.426 11.88 239.946 11.64C239.466 11.384 239.074 11.04 238.77 10.608C238.482 10.176 238.338 9.6 238.338 8.88C238.338 8.192 238.53 7.576 238.914 7.032C239.298 6.488 239.858 6.064 240.594 5.76C241.346 5.44 242.258 5.28 243.33 5.28C244.146 5.28 244.962 5.392 245.778 5.616C246.594 5.824 247.266 6.104 247.794 6.456L247.05 7.824C246.49 7.44 245.89 7.168 245.25 7.008C244.61 6.832 243.97 6.744 243.33 6.744C242.194 6.744 241.354 6.944 240.81 7.344C240.282 7.728 240.018 8.224 240.018 8.832C240.018 9.312 240.162 9.688 240.45 9.96C240.754 10.232 241.146 10.448 241.626 10.608C242.122 10.752 242.658 10.872 243.234 10.968C243.826 11.064 244.41 11.184 244.986 11.328C245.578 11.456 246.114 11.64 246.594 11.88C247.09 12.104 247.482 12.432 247.77 12.864C248.074 13.28 248.226 13.832 248.226 14.52C248.226 15.256 248.018 15.896 247.602 16.44C247.202 16.968 246.61 17.384 245.826 17.688C245.058 17.976 244.122 18.12 243.018 18.12Z" fill="#C8D7EB"/>
</svg>
