<svg width="407" height="304" viewBox="0 0 407 304" fill="none" xmlns="http://www.w3.org/2000/svg">
<path d="M15.0413 61.84C15.0413 63.696 15.2333 65.04 15.6173 65.872C16.0013 66.704 16.7053 67.28 17.7293 67.6C18.7533 67.856 20.4173 67.984 22.7213 67.984H33.1853C36.8333 67.984 39.7453 66.864 41.9213 64.624C44.0973 62.384 45.5373 59.28 46.2413 55.312C46.2413 55.12 46.4013 55.056 46.7213 55.12C47.1053 55.12 47.2973 55.216 47.2973 55.408C46.7213 60.72 46.4333 65.104 46.4333 68.56C46.4333 69.072 46.3373 69.456 46.1453 69.712C45.9533 69.904 45.5693 70 44.9933 70H0.64125C0.51325 70 0.44925 69.808 0.44925 69.424C0.44925 69.04 0.51325 68.848 0.64125 68.848C3.07325 68.848 4.83325 68.688 5.92125 68.368C7.07325 68.048 7.84125 67.44 8.22525 66.544C8.60925 65.584 8.80125 64.144 8.80125 62.224V17.776C8.80125 15.856 8.60925 14.448 8.22525 13.552C7.84125 12.656 7.07325 12.048 5.92125 11.728C4.83325 11.344 3.07325 11.152 0.64125 11.152C0.51325 11.152 0.44925 10.96 0.44925 10.576C0.44925 10.192 0.51325 10 0.64125 10L5.34525 10.096C8.03325 10.224 10.2093 10.288 11.8733 10.288C13.6653 10.288 15.9053 10.224 18.5933 10.096L23.2013 10C23.3933 10 23.4893 10.192 23.4893 10.576C23.4893 10.96 23.3933 11.152 23.2013 11.152C20.8333 11.152 19.0733 11.344 17.9213 11.728C16.8333 12.048 16.0653 12.688 15.6173 13.648C15.2333 14.544 15.0413 15.952 15.0413 17.872V61.84ZM83.4128 64.624C83.6048 64.624 83.7648 64.752 83.8928 65.008C84.0848 65.2 84.1168 65.392 83.9888 65.584C79.6368 69.296 74.9648 71.152 69.9728 71.152C66.1968 71.152 62.9328 70.288 60.1808 68.56C57.4288 66.832 55.3488 64.592 53.9408 61.84C52.5968 59.024 51.9248 55.984 51.9248 52.72C51.9248 48.88 52.8208 45.392 54.6128 42.256C56.4688 39.12 58.9648 36.656 62.1008 34.864C65.2368 33.008 68.7248 32.08 72.5648 32.08C76.0208 32.08 78.7088 32.944 80.6288 34.672C82.5488 36.336 83.5088 38.64 83.5088 41.584C83.5088 42.352 83.4128 42.928 83.2208 43.312C83.0928 43.632 82.8048 43.792 82.3568 43.792L58.7408 43.984C58.4208 45.712 58.2608 47.376 58.2608 48.976C58.2608 54.544 59.6048 59.088 62.2928 62.608C64.9808 66.064 68.6928 67.792 73.4288 67.792C77.0768 67.792 80.3728 66.736 83.3168 64.624H83.4128ZM69.3008 34C66.6768 34 64.4688 34.768 62.6768 36.304C60.9488 37.776 59.7328 39.888 59.0288 42.64L76.8848 42.256C76.8848 39.632 76.1808 37.616 74.7728 36.208C73.4288 34.736 71.6048 34 69.3008 34ZM119.756 38.8C119.756 41.04 120.492 42.832 121.964 44.176C123.436 45.456 125.612 46.832 128.492 48.304C130.732 49.456 132.46 50.448 133.676 51.28C134.956 52.112 136.044 53.2 136.94 54.544C137.836 55.888 138.284 57.52 138.284 59.44C138.284 62.704 137.068 65.456 134.636 67.696C132.204 69.936 128.908 71.056 124.748 71.056C121.356 71.056 118.284 70.096 115.532 68.176C115.148 67.92 114.956 67.536 114.956 67.024L114.764 59.536C114.764 59.344 114.924 59.248 115.244 59.248C115.628 59.184 115.852 59.248 115.916 59.44C117.132 62.64 118.7 65.072 120.62 66.736C122.604 68.4 124.876 69.232 127.436 69.232C129.42 69.232 130.956 68.784 132.044 67.888C133.196 66.928 133.772 65.52 133.772 63.664C133.772 61.872 133.356 60.368 132.524 59.152C131.756 57.872 130.796 56.88 129.644 56.176C128.492 55.408 126.924 54.512 124.94 53.488C122.828 52.464 121.132 51.536 119.852 50.704C118.636 49.872 117.58 48.784 116.684 47.44C115.852 46.096 115.436 44.432 115.436 42.448C115.436 38.992 116.716 36.368 119.276 34.576C121.9 32.72 124.972 31.792 128.492 31.792C131.052 31.792 133.388 32.272 135.5 33.232C135.884 33.36 136.108 33.52 136.172 33.712C136.3 33.84 136.364 34.032 136.364 34.288C136.364 35.568 136.332 36.56 136.268 37.264L136.172 41.296C136.172 41.424 135.98 41.488 135.596 41.488C135.212 41.488 135.02 41.424 135.02 41.296C135.02 39.952 134.508 38.704 133.484 37.552C132.46 36.336 131.18 35.376 129.644 34.672C128.108 33.968 126.572 33.616 125.036 33.616C123.372 33.616 122.06 34.064 121.1 34.96C120.204 35.792 119.756 37.072 119.756 38.8ZM164.77 71.248C161.058 71.248 157.762 70.352 154.882 68.56C152.066 66.704 149.89 64.24 148.354 61.168C146.818 58.032 146.05 54.64 146.05 50.992C146.05 46.832 147.042 43.312 149.026 40.432C151.074 37.488 153.666 35.312 156.802 33.904C160.002 32.432 163.234 31.696 166.498 31.696C170.274 31.696 173.57 32.624 176.386 34.48C179.202 36.336 181.346 38.8 182.818 41.872C184.354 44.88 185.122 48.08 185.122 51.472C185.122 55.44 184.194 58.928 182.338 61.936C180.482 64.88 177.986 67.184 174.85 68.848C171.778 70.448 168.418 71.248 164.77 71.248ZM167.554 69.424C171.074 69.424 173.794 68.176 175.714 65.68C177.634 63.184 178.594 59.344 178.594 54.16C178.594 50.192 177.922 46.64 176.578 43.504C175.298 40.368 173.506 37.936 171.202 36.208C168.898 34.416 166.274 33.52 163.33 33.52C159.874 33.52 157.186 34.768 155.266 37.264C153.41 39.76 152.482 43.344 152.482 48.016C152.482 51.92 153.122 55.504 154.402 58.768C155.682 62.032 157.474 64.624 159.778 66.544C162.082 68.464 164.674 69.424 167.554 69.424ZM192.371 70C192.179 70 192.083 69.808 192.083 69.424C192.083 69.04 192.179 68.848 192.371 68.848C194.099 68.848 195.379 68.688 196.211 68.368C197.043 67.984 197.619 67.344 197.939 66.448C198.259 65.488 198.419 64.08 198.419 62.224V12.592C198.419 10.288 198.195 8.624 197.747 7.6C197.299 6.576 196.499 6.064 195.347 6.064C194.387 6.064 192.915 6.512 190.931 7.408H190.739C190.547 7.408 190.387 7.248 190.259 6.928C190.195 6.608 190.259 6.41599 190.451 6.352L202.739 0.495996C202.867 0.431997 203.027 0.399998 203.219 0.399998C203.347 0.399998 203.507 0.495996 203.699 0.687994C203.955 0.815996 204.083 0.975998 204.083 1.168V62.224C204.083 64.08 204.211 65.456 204.467 66.352C204.787 67.248 205.363 67.888 206.195 68.272C207.027 68.656 208.307 68.848 210.035 68.848C210.227 68.848 210.323 69.04 210.323 69.424C210.323 69.808 210.227 70 210.035 70C208.627 70 207.475 69.968 206.579 69.904L201.203 69.808L196.019 69.904C195.123 69.968 193.907 70 192.371 70ZM248.225 64.624C248.417 64.624 248.577 64.752 248.705 65.008C248.897 65.2 248.929 65.392 248.801 65.584C244.449 69.296 239.777 71.152 234.785 71.152C231.009 71.152 227.745 70.288 224.993 68.56C222.241 66.832 220.161 64.592 218.753 61.84C217.409 59.024 216.737 55.984 216.737 52.72C216.737 48.88 217.633 45.392 219.425 42.256C221.281 39.12 223.777 36.656 226.913 34.864C230.049 33.008 233.537 32.08 237.377 32.08C240.833 32.08 243.521 32.944 245.441 34.672C247.361 36.336 248.321 38.64 248.321 41.584C248.321 42.352 248.225 42.928 248.033 43.312C247.905 43.632 247.617 43.792 247.169 43.792L223.553 43.984C223.233 45.712 223.073 47.376 223.073 48.976C223.073 54.544 224.417 59.088 227.105 62.608C229.793 66.064 233.505 67.792 238.241 67.792C241.889 67.792 245.185 66.736 248.129 64.624H248.225ZM234.113 34C231.489 34 229.281 34.768 227.489 36.304C225.761 37.776 224.545 39.888 223.841 42.64L241.697 42.256C241.697 39.632 240.993 37.616 239.585 36.208C238.241 34.736 236.417 34 234.113 34ZM257.557 70C257.429 70 257.365 69.808 257.365 69.424C257.365 69.04 257.429 68.848 257.557 68.848C259.285 68.848 260.565 68.688 261.397 68.368C262.293 67.984 262.901 67.344 263.221 66.448C263.541 65.488 263.701 64.08 263.701 62.224V44.272C263.701 41.968 263.445 40.304 262.933 39.28C262.485 38.256 261.685 37.744 260.533 37.744C259.381 37.744 257.941 38.192 256.213 39.088H256.117C255.861 39.088 255.669 38.928 255.541 38.608C255.413 38.288 255.445 38.064 255.637 37.936L268.117 32.176L268.501 32.08C268.629 32.08 268.789 32.176 268.981 32.368C269.173 32.496 269.269 32.656 269.269 32.848C269.269 33.296 269.237 34.576 269.173 36.688C269.109 38.8 269.077 41.296 269.077 44.176V62.224C269.077 64.144 269.237 65.552 269.557 66.448C269.877 67.344 270.453 67.984 271.285 68.368C272.117 68.688 273.397 68.848 275.125 68.848C275.317 68.848 275.413 69.04 275.413 69.424C275.413 69.808 275.317 70 275.125 70C273.653 70 272.469 69.968 271.573 69.904L266.389 69.808L261.205 69.904C260.309 69.968 259.093 70 257.557 70ZM265.621 20.848C264.277 20.848 263.221 20.496 262.453 19.792C261.749 19.088 261.397 18.096 261.397 16.816C261.397 15.536 261.749 14.544 262.453 13.84C263.221 13.136 264.277 12.784 265.621 12.784C266.901 12.784 267.893 13.136 268.597 13.84C269.301 14.544 269.653 15.536 269.653 16.816C269.653 18.096 269.301 19.088 268.597 19.792C267.893 20.496 266.901 20.848 265.621 20.848ZM96.6 171.696C96.6 171.568 96.728 171.504 96.984 171.504C97.176 171.504 97.336 171.536 97.464 171.6C97.656 171.664 97.752 171.76 97.752 171.888C97.176 175.92 96.888 180.144 96.888 184.56C96.888 185.072 96.76 185.456 96.504 185.712C96.312 185.904 95.928 186 95.352 186H55.128C55 186 54.936 185.808 54.936 185.424C54.936 185.04 55 184.848 55.128 184.848C57.56 184.848 59.32 184.688 60.408 184.368C61.56 184.048 62.328 183.44 62.712 182.544C63.16 181.584 63.384 180.144 63.384 178.224V133.776C63.384 131.856 63.16 130.448 62.712 129.552C62.328 128.656 61.56 128.048 60.408 127.728C59.32 127.344 57.56 127.152 55.128 127.152C55 127.152 54.936 126.96 54.936 126.576C54.936 126.192 55 126 55.128 126H93.72C94.296 126 94.584 126.288 94.584 126.864L94.776 138.672C94.776 138.864 94.616 138.992 94.296 139.056C93.976 139.056 93.784 138.96 93.72 138.768C93.528 135.376 92.504 132.752 90.648 130.896C88.792 128.976 86.328 128.016 83.256 128.016H77.4C75.16 128.016 73.496 128.208 72.408 128.592C71.384 128.912 70.648 129.52 70.2 130.416C69.816 131.248 69.624 132.528 69.624 134.256V153.744H81.336C84.408 153.744 86.584 153.232 87.864 152.208C89.208 151.184 89.88 149.456 89.88 147.024C89.88 146.896 90.072 146.832 90.456 146.832C90.84 146.832 91.032 146.896 91.032 147.024L90.936 154.8C90.936 156.656 90.968 158.064 91.032 159.024L91.128 163.632C91.128 163.76 90.936 163.824 90.552 163.824C90.168 163.824 89.976 163.76 89.976 163.632C89.976 160.816 89.272 158.8 87.864 157.584C86.52 156.368 84.248 155.76 81.048 155.76H69.624V177.84C69.624 179.632 69.816 180.944 70.2 181.776C70.584 182.608 71.288 183.184 72.312 183.504C73.336 183.824 74.936 183.984 77.112 183.984H84.792C87.864 183.984 90.424 182.896 92.472 180.72C94.52 178.544 95.896 175.536 96.6 171.696ZM132.419 181.008C132.675 181.008 132.867 181.168 132.995 181.488C133.123 181.744 133.091 181.936 132.899 182.064C130.531 183.92 128.387 185.232 126.467 186C124.611 186.768 122.659 187.152 120.611 187.152C117.923 187.152 115.715 186.544 113.987 185.328C112.259 184.112 111.395 182.096 111.395 179.28V156.72C111.395 155.056 111.267 153.872 111.011 153.168C110.819 152.464 110.403 152.016 109.763 151.824C109.123 151.568 108.035 151.44 106.499 151.44C106.243 151.44 106.115 151.248 106.115 150.864C106.115 150.416 106.243 150.192 106.499 150.192C109.059 150.128 111.139 149.456 112.739 148.176C114.339 146.832 115.267 145.072 115.523 142.896C115.523 142.704 115.779 142.608 116.291 142.608C116.739 142.608 116.963 142.704 116.963 142.896V150C120.163 149.936 124.611 149.616 130.307 149.04C130.435 149.04 130.563 149.296 130.691 149.808C130.883 150.256 130.979 150.768 130.979 151.344C130.979 151.856 130.851 152.4 130.595 152.976C130.403 153.488 130.179 153.712 129.923 153.648C126.403 152.752 122.083 152.24 116.963 152.112V176.016C116.963 178.64 117.603 180.592 118.883 181.872C120.227 183.152 122.115 183.792 124.547 183.792C127.491 183.792 130.051 182.896 132.227 181.104L132.419 181.008ZM153.369 293.84C153.369 295.696 153.561 297.04 153.945 297.872C154.329 298.704 155.033 299.28 156.057 299.6C157.081 299.856 158.745 299.984 161.049 299.984H171.513C175.161 299.984 178.073 298.864 180.249 296.624C182.425 294.384 183.865 291.28 184.569 287.312C184.569 287.12 184.729 287.056 185.049 287.12C185.433 287.12 185.625 287.216 185.625 287.408C185.049 292.72 184.761 297.104 184.761 300.56C184.761 301.072 184.665 301.456 184.473 301.712C184.281 301.904 183.897 302 183.321 302H138.969C138.841 302 138.777 301.808 138.777 301.424C138.777 301.04 138.841 300.848 138.969 300.848C141.401 300.848 143.161 300.688 144.249 300.368C145.401 300.048 146.169 299.44 146.553 298.544C146.937 297.584 147.129 296.144 147.129 294.224V249.776C147.129 247.856 146.937 246.448 146.553 245.552C146.169 244.656 145.401 244.048 144.249 243.728C143.161 243.344 141.401 243.152 138.969 243.152C138.841 243.152 138.777 242.96 138.777 242.576C138.777 242.192 138.841 242 138.969 242L143.673 242.096C146.361 242.224 148.537 242.288 150.201 242.288C151.993 242.288 154.233 242.224 156.921 242.096L161.529 242C161.721 242 161.817 242.192 161.817 242.576C161.817 242.96 161.721 243.152 161.529 243.152C159.161 243.152 157.401 243.344 156.249 243.728C155.161 244.048 154.393 244.688 153.945 245.648C153.561 246.544 153.369 247.952 153.369 249.872V293.84ZM226.637 296.816C226.893 296.816 227.053 296.976 227.117 297.296C227.181 297.552 227.085 297.744 226.829 297.872L216.941 302.576C216.685 302.704 216.429 302.768 216.173 302.768C215.341 302.768 214.605 302.224 213.965 301.136C213.325 300.048 212.909 298.544 212.717 296.624L206.765 299.792C204.781 300.816 203.149 301.552 201.869 302C200.589 302.448 199.341 302.672 198.125 302.672C196.141 302.672 194.605 302.16 193.517 301.136C192.493 300.048 191.981 298.704 191.981 297.104C191.981 295.376 192.621 294 193.901 292.976C195.245 291.888 197.613 290.768 201.005 289.616L212.621 285.488V277.52C212.621 273.296 212.077 270.352 210.989 268.688C209.901 266.96 208.397 266.096 206.477 266.096C204.301 266.096 202.605 266.864 201.389 268.4C200.173 269.936 199.437 271.792 199.181 273.968C198.925 276.4 197.741 277.616 195.629 277.616C194.605 277.616 193.805 277.36 193.229 276.848C192.653 276.336 192.365 275.632 192.365 274.736C192.365 273.264 193.325 271.696 195.245 270.032C197.165 268.368 199.469 266.96 202.157 265.808C204.909 264.656 207.373 264.08 209.549 264.08C212.109 264.08 214.157 264.976 215.693 266.768C217.229 268.496 217.997 271.12 217.997 274.64V291.632C217.997 293.872 218.285 295.504 218.861 296.528C219.437 297.552 220.397 298.064 221.741 298.064C222.957 298.064 224.525 297.648 226.445 296.816H226.637ZM212.621 295.28V294.704V286.64L202.733 290.384C201.261 290.96 200.205 291.6 199.565 292.304C198.989 293.008 198.701 293.904 198.701 294.992C198.701 296.336 199.085 297.392 199.853 298.16C200.621 298.864 201.613 299.216 202.829 299.216C204.045 299.216 205.357 298.896 206.765 298.256L212.621 295.28ZM253.356 302C253.164 302 253.068 301.808 253.068 301.424C253.068 301.04 253.164 300.848 253.356 300.848C255.084 300.848 256.364 300.688 257.196 300.368C258.028 299.984 258.604 299.344 258.924 298.448C259.244 297.488 259.404 296.08 259.404 294.224V244.592C259.404 242.288 259.18 240.624 258.732 239.6C258.284 238.576 257.484 238.064 256.332 238.064C255.372 238.064 253.9 238.512 251.916 239.408H251.724C251.532 239.408 251.372 239.248 251.244 238.928C251.18 238.608 251.244 238.416 251.436 238.352L263.724 232.496C263.852 232.432 264.012 232.4 264.204 232.4C264.332 232.4 264.492 232.496 264.684 232.688C264.94 232.816 265.068 232.976 265.068 233.168V294.224C265.068 296.08 265.196 297.456 265.452 298.352C265.772 299.248 266.348 299.888 267.18 300.272C268.012 300.656 269.292 300.848 271.02 300.848C271.212 300.848 271.308 301.04 271.308 301.424C271.308 301.808 271.212 302 271.02 302C269.612 302 268.46 301.968 267.564 301.904L262.188 301.808L257.004 301.904C256.108 301.968 254.892 302 253.356 302ZM321.018 296.528C321.274 296.528 321.434 296.688 321.498 297.008C321.626 297.264 321.562 297.456 321.306 297.584L310.074 302.864L309.69 302.96C309.05 302.96 308.442 302.224 307.866 300.752C307.29 299.28 307.002 297.36 307.002 294.992V294.608C304.506 297.424 302.01 299.504 299.514 300.848C297.018 302.128 294.426 302.768 291.738 302.768C288.538 302.768 286.042 301.776 284.25 299.792C282.458 297.744 281.562 294.8 281.562 290.96V276.272C281.562 273.776 281.338 271.984 280.89 270.896C280.442 269.744 279.706 269.168 278.682 269.168C277.786 269.168 276.698 269.488 275.418 270.128H275.322C275.066 270.128 274.874 269.968 274.746 269.648C274.618 269.264 274.682 269.04 274.938 268.976L285.594 264.176L285.978 264.08C286.17 264.08 286.362 264.176 286.554 264.368C286.81 264.496 286.938 264.656 286.938 264.848V287.792C286.938 295.216 289.626 298.928 295.002 298.928C297.05 298.928 299.13 298.416 301.242 297.392C303.354 296.304 305.274 294.832 307.002 292.976V276.272C307.002 273.712 306.778 271.888 306.33 270.8C305.946 269.712 305.21 269.168 304.122 269.168C303.226 269.168 302.138 269.488 300.858 270.128H300.762C300.506 270.128 300.314 269.968 300.186 269.648C300.122 269.264 300.218 269.04 300.474 268.976L311.13 264.176L311.418 264.08C311.61 264.08 311.802 264.176 311.994 264.368C312.25 264.496 312.378 264.656 312.378 264.848V291.728C312.378 293.904 312.634 295.472 313.146 296.432C313.658 297.392 314.522 297.872 315.738 297.872C316.826 297.872 318.522 297.424 320.826 296.528H321.018ZM369.129 300.848C369.321 300.848 369.417 301.04 369.417 301.424C369.417 301.808 369.321 302 369.129 302C367.657 302 366.505 301.968 365.673 301.904L360.489 301.808L355.209 301.904C354.377 301.968 353.225 302 351.753 302C351.561 302 351.465 301.808 351.465 301.424C351.465 301.04 351.561 300.848 351.753 300.848C353.481 300.848 354.761 300.688 355.593 300.368C356.425 299.984 356.969 299.344 357.225 298.448C357.545 297.552 357.705 296.144 357.705 294.224V278.672C357.705 274.896 356.969 272.112 355.497 270.32C354.089 268.528 351.881 267.632 348.873 267.632C346.889 267.632 344.873 268.176 342.825 269.264C340.841 270.288 339.017 271.728 337.353 273.584V294.224C337.353 296.144 337.481 297.552 337.737 298.448C338.057 299.344 338.633 299.984 339.465 300.368C340.297 300.688 341.577 300.848 343.305 300.848C343.497 300.848 343.593 301.04 343.593 301.424C343.593 301.808 343.497 302 343.305 302C341.833 302 340.681 301.968 339.849 301.904L334.665 301.808L329.385 301.904C328.553 301.968 327.401 302 325.929 302C325.737 302 325.641 301.808 325.641 301.424C325.641 301.04 325.737 300.848 325.929 300.848C327.657 300.848 328.937 300.688 329.769 300.368C330.601 299.984 331.145 299.344 331.401 298.448C331.721 297.552 331.881 296.144 331.881 294.224V275.216C331.881 273.04 331.625 271.472 331.113 270.512C330.601 269.552 329.737 269.072 328.521 269.072C327.497 269.072 325.769 269.552 323.337 270.512H323.145C322.889 270.512 322.697 270.384 322.569 270.128C322.505 269.808 322.601 269.584 322.857 269.456L333.993 264.176C334.121 264.112 334.313 264.08 334.569 264.08C335.145 264.08 335.753 264.816 336.393 266.288C337.033 267.76 337.353 269.648 337.353 271.952C339.785 269.136 342.185 267.056 344.553 265.712C346.985 264.368 349.481 263.696 352.041 263.696C355.625 263.696 358.377 264.688 360.297 266.672C362.217 268.656 363.177 271.568 363.177 275.408V294.224C363.177 296.144 363.305 297.552 363.561 298.448C363.881 299.344 364.457 299.984 365.289 300.368C366.121 300.688 367.401 300.848 369.129 300.848ZM406.147 296.624C406.339 296.624 406.499 296.752 406.627 297.008C406.819 297.2 406.851 297.392 406.723 297.584C402.371 301.296 397.699 303.152 392.707 303.152C388.931 303.152 385.667 302.288 382.915 300.56C380.163 298.832 378.083 296.592 376.675 293.84C375.331 291.024 374.659 287.984 374.659 284.72C374.659 280.88 375.555 277.392 377.347 274.256C379.203 271.12 381.699 268.656 384.835 266.864C387.971 265.008 391.459 264.08 395.299 264.08C398.755 264.08 401.443 264.944 403.363 266.672C405.283 268.336 406.243 270.64 406.243 273.584C406.243 274.352 406.147 274.928 405.955 275.312C405.827 275.632 405.539 275.792 405.091 275.792L381.475 275.984C381.155 277.712 380.995 279.376 380.995 280.976C380.995 286.544 382.339 291.088 385.027 294.608C387.715 298.064 391.427 299.792 396.163 299.792C399.811 299.792 403.107 298.736 406.051 296.624H406.147ZM392.035 266C389.411 266 387.203 266.768 385.411 268.304C383.683 269.776 382.467 271.888 381.763 274.64L399.619 274.256C399.619 271.632 398.915 269.616 397.507 268.208C396.163 266.736 394.339 266 392.035 266Z" fill="#C8D7EB"/>
</svg>
